<svg width="151" height="70" fill="none" xmlns="http://www.w3.org/2000/svg"><path fill-rule="evenodd" clip-rule="evenodd" d="M81.09 4.324h2.222v13.48h9.112v1.989H81.09V4.324zM101.015 18.025c0 .11 0 1.215.112 1.768h1.999c-.111-.774-.111-1.768-.111-2.431v-4.64c0-2.254-1.556-4.198-4.511-4.198-2.51 0-4.355 1.391-4.488 3.424h2.11c.134-1.105 1.133-1.657 2.334-1.657h.11c1.446 0 2.334.885 2.334 2.431v.354l-3.066.243c-1.8.154-4.045.905-4.045 3.424 0 1.879 1.555 3.272 3.666 3.272 1.778 0 3.112-.996 3.556-1.99zm-5.111-1.37c0-1.017.933-1.636 2.222-1.745l2.778-.222v1.127c0 1.326-1.667 2.43-3 2.43h-.222c-1.023 0-1.778-.684-1.778-1.59zM108.291 18.246c.555.994 2.111 1.768 3.666 1.768 2.778 0 4.779-2.1 4.779-5.745 0-3.646-2.223-5.745-5-5.745-1.556 0-2.89.772-3.445 1.766V4.324h-2.111v15.469h2.111v-1.547zm3.333 0h-.223c-1.555 0-3.11-1.326-3.11-3.977 0-2.652 1.555-3.978 3.11-3.978h.223c1.667 0 3.001 1.326 3.001 3.977 0 2.652-1.334 3.978-3.001 3.978zM81.09 27.648h2.222v15.469H81.09V27.648zM87.313 27.648h3.112l7.22 12.817V27.648h2.223v15.469h-3.111l-7.222-12.815v12.815h-2.222V27.648zM103.867 27.648h2.223v15.469h-2.223V27.648zM114.025 29.637h-5.556v-1.99h13.334v1.99h-5.556v13.479h-2.222V29.637zM87.757 49.993H81.09v15.468h2.222v-6.187h5.335c1.22 0 1.555.332 1.555 1.548v4.64h2.223v-5.193c0-1.548-.556-2.166-2.334-2.166 1.444-.442 2.555-1.922 2.555-3.91 0-2.432-2-4.2-4.889-4.2zm2.667 4.53c0 1.546-1.112 2.762-3 2.762h-4.111v-5.303h4.111c1.888 0 3 .884 3 2.541zM100.513 54.192c-3 0-5.333 2.32-5.333 5.745 0 3.425 2.333 5.746 5.333 5.746 3.001 0 5.333-2.32 5.333-5.746 0-3.426-2.332-5.745-5.333-5.745zm.111 1.767c1.778 0 3.11 1.437 3.11 3.978 0 2.54-1.332 3.978-3.11 3.978h-.223c-1.776 0-3.11-1.438-3.11-3.978s1.334-3.978 3.11-3.978h.223zM110.603 63.914c.556.994 2.111 1.768 3.666 1.768 2.778 0 4.779-2.1 4.779-5.745 0-3.646-2.222-5.745-5-5.745-1.555 0-2.889.772-3.445 1.766v-5.966h-2.111v15.469h2.111v-1.547zm3.333 0h-.222c-1.556 0-3.111-1.326-3.111-3.977 0-2.652 1.555-3.978 3.111-3.978h.222c1.667 0 3.001 1.326 3.001 3.977 0 2.652-1.334 3.978-3.001 3.978zM126.357 54.192c-3 0-5.334 2.32-5.334 5.745 0 3.425 2.334 5.746 5.334 5.746 3 0 5.333-2.32 5.333-5.746 0-3.426-2.333-5.745-5.333-5.745zm.111 1.767c1.778 0 3.11 1.437 3.11 3.978 0 2.54-1.332 3.978-3.11 3.978h-.223c-1.777 0-3.111-1.438-3.111-3.978s1.334-3.978 3.111-3.978h.223zM140.399 65.461h-2.666c-1.556 0-2.444-.883-2.444-2.431v-6.805h-2.445v-1.813h2.445v-3.579h2.111v3.58h2.666v1.812H137.4V62.7c0 .664.221.884.888.884h2.111v1.878zM141.824 62.036h2.111c.133 1.238 1.156 1.88 2.445 1.88h.222c1.134 0 2.044-.553 2.044-1.438 0-.707-.399-1.193-1.51-1.415l-1.622-.309c-1.801-.352-3.245-1.28-3.245-3.16 0-2.21 1.977-3.402 4.2-3.402 2.911 0 4.4 1.547 4.4 3.646h-2.111c-.112-.994-.822-1.88-2.156-1.88h-.221c-1.223 0-2.001.642-2.001 1.415 0 .664.444 1.194 1.555 1.415l1.757.354c1.688.332 3.065 1.237 3.065 3.226 0 1.989-1.799 3.315-4.376 3.315-2.956 0-4.445-1.548-4.557-3.647zM49.84 20.49L39.57 10.276l-2.074 2.063 10.27 10.212 2.074-2.063zM49.84 30.7L39.57 20.49l-2.074 2.062 10.27 10.211 2.074-2.062zM49.84 10.277L39.57.065l-2.074 2.063 10.27 10.212 10.27 10.212 10.27 10.211 2.075-2.062-10.27-10.212-10.27-10.212zM58.035 12.34l10.27 10.212 2.075-2.063-10.27-10.212-2.075 2.063zM70.38 10.277L60.11.065l-2.075 2.063 10.27 10.212 2.075-2.063zM12.673 39.085l-2.075-2.063L.328 47.234l2.075 2.063 10.27-10.212zM10.598 47.234l2.074 2.063 10.27-10.212-2.074-2.063-10.27 10.212zM20.868 57.445l-10.27 10.212 2.074 2.062 10.27-10.211-2.074-2.063zM20.868 47.234l-10.27 10.212L.328 67.657l2.075 2.063 10.27-10.211 10.27-10.212 10.27-10.212-2.075-2.063-10.27 10.212zM20.867 67.657l2.075 2.062 10.27-10.211-2.074-2.063-10.27 10.212zM47.766 37.023l-10.27 10.211 2.075 2.063 10.27-10.212-2.075-2.063zM49.84 49.297l10.27-10.212-2.074-2.063-10.27 10.212 2.074 2.063zM47.766 67.657l2.074 2.062 10.27-10.211-2.074-2.063-10.27 10.212zM58.036 47.234l-10.27 10.212 2.074 2.063 10.27-10.212 10.27-10.212-2.074-2.063-10.27 10.212zM20.867 2.128l10.27 10.212 2.075-2.063L22.942.065l-2.075 2.063zM22.942 10.277L12.672.065l-2.074 2.063 10.27 10.212 2.074-2.063zM12.673 10.277L2.403.065.328 2.128l10.27 10.212 10.27 10.212 10.27 10.211 2.075-2.062-10.27-10.212-10.27-10.212zM12.672 20.49l-2.074 2.062 10.27 10.211 2.074-2.062-10.27-10.212zM.328 22.552l10.27 10.211 2.075-2.062-10.27-10.212-2.075 2.063z" fill="#000"/></svg>