<svg width="150" height="70" fill="none" xmlns="http://www.w3.org/2000/svg"><path fill-rule="evenodd" clip-rule="evenodd" d="M80.3 4.258h2.21v13.48h9.06v1.989H80.3V4.258zM100.115 17.96c0 .11 0 1.215.111 1.767h1.988c-.111-.773-.111-1.767-.111-2.43v-4.64c0-2.255-1.547-4.198-4.485-4.198-2.496 0-4.33 1.391-4.463 3.424h2.099c.132-1.105 1.126-1.657 2.32-1.657h.11c1.437 0 2.32.884 2.32 2.43v.355l-3.048.243c-1.791.154-4.022.905-4.022 3.424 0 1.879 1.546 3.271 3.645 3.271 1.768 0 3.094-.996 3.536-1.99zm-5.083-1.37c0-1.018.928-1.636 2.21-1.746l2.762-.221v1.126c0 1.326-1.657 2.431-2.982 2.431H96.8c-1.017 0-1.768-.684-1.768-1.59zM107.349 18.18c.552.994 2.099 1.768 3.645 1.768 2.762 0 4.752-2.1 4.752-5.745 0-3.646-2.21-5.745-4.972-5.745-1.546 0-2.873.772-3.425 1.767V4.258h-2.099v15.469h2.099V18.18zm3.314 0h-.221c-1.547 0-3.093-1.326-3.093-3.977 0-2.652 1.546-3.978 3.093-3.978h.221c1.658 0 2.984 1.326 2.984 3.978 0 2.651-1.326 3.977-2.984 3.977zM80.3 27.583h2.21v15.469H80.3V27.583zM86.488 27.583h3.095l7.18 12.817V27.583h2.209v15.469h-3.093l-7.181-12.816v12.816h-2.21V27.583zM102.949 27.583h2.21v15.469h-2.21V27.583zM113.052 29.572h-5.525v-1.99h13.258v1.99h-5.524v13.48h-2.209v-13.48zM86.93 49.928h-6.629v15.468h2.21v-6.188h5.304c1.214 0 1.546.332 1.546 1.548v4.64h2.21v-5.192c0-1.548-.552-2.167-2.32-2.167 1.435-.441 2.54-1.922 2.54-3.91 0-2.431-1.988-4.2-4.86-4.2zm2.652 4.53c0 1.546-1.105 2.762-2.983 2.762h-4.088v-5.303h4.088c1.878 0 2.983.883 2.983 2.54zM99.615 54.127c-2.982 0-5.302 2.32-5.302 5.745 0 3.425 2.32 5.745 5.302 5.746 2.984 0 5.303-2.32 5.303-5.746 0-3.426-2.319-5.745-5.303-5.745zm.11 1.767c1.769 0 3.094 1.437 3.094 3.978 0 2.54-1.325 3.977-3.093 3.977h-.222c-1.766 0-3.093-1.437-3.093-3.977s1.327-3.978 3.093-3.978h.222zM109.646 63.85c.552.993 2.099 1.767 3.645 1.767 2.762 0 4.752-2.1 4.752-5.746 0-3.645-2.21-5.744-4.972-5.744-1.546 0-2.873.772-3.425 1.766v-5.966h-2.099v15.469h2.099v-1.547zm3.314 0h-.221c-1.547 0-3.093-1.327-3.093-3.978 0-2.652 1.546-3.978 3.093-3.978h.221c1.657 0 2.984 1.326 2.984 3.978 0 2.65-1.327 3.977-2.984 3.977zM125.314 54.127c-2.982 0-5.302 2.32-5.302 5.745 0 3.425 2.32 5.745 5.302 5.746 2.984 0 5.303-2.32 5.303-5.746 0-3.426-2.319-5.745-5.303-5.745zm.111 1.767c1.768 0 3.093 1.437 3.093 3.978 0 2.54-1.325 3.977-3.093 3.977h-.222c-1.766 0-3.092-1.437-3.092-3.977s1.326-3.978 3.092-3.978h.222zM139.278 65.396h-2.651c-1.547 0-2.43-.884-2.43-2.431V56.16h-2.431v-1.813h2.431v-3.58h2.099v3.58h2.651v1.813h-2.651v6.474c0 .663.22.883.883.883h2.099v1.879zM140.691 61.97h2.099c.133 1.238 1.15 1.88 2.432 1.88h.22c1.128 0 2.033-.553 2.033-1.438 0-.706-.397-1.193-1.502-1.414l-1.613-.31c-1.791-.352-3.227-1.28-3.227-3.16 0-2.209 1.967-3.401 4.177-3.401 2.894 0 4.374 1.546 4.374 3.645h-2.098c-.111-.994-.818-1.879-2.144-1.879h-.22c-1.215 0-1.989.642-1.989 1.414 0 .664.441 1.194 1.546 1.415l1.746.354c1.679.332 3.049 1.237 3.049 3.227 0 1.988-1.79 3.314-4.352 3.314-2.939 0-4.42-1.548-4.531-3.647z" fill="#fff"/><path fill-rule="evenodd" clip-rule="evenodd" d="M49.231 20.424L39.02 10.212l-2.063 2.063 10.211 10.212 2.063-2.063z" fill="url(#paint0_linear)"/><path fill-rule="evenodd" clip-rule="evenodd" d="M49.231 30.635L39.02 20.424l-2.063 2.063 10.211 10.21 2.063-2.062z" fill="url(#paint1_linear)"/><path fill-rule="evenodd" clip-rule="evenodd" d="M49.231 10.212L39.02 0l-2.063 2.063 10.211 10.211L57.38 22.487l10.212 10.21 2.063-2.062-10.212-10.211L49.23 10.212z" fill="url(#paint2_linear)"/><path fill-rule="evenodd" clip-rule="evenodd" d="M57.379 12.275L67.59 22.487l2.062-2.063-10.211-10.212-2.063 2.063z" fill="url(#paint3_linear)"/><path fill-rule="evenodd" clip-rule="evenodd" d="M69.653 10.212L59.442 0l-2.063 2.063L67.59 12.274l2.062-2.062z" fill="url(#paint4_linear)"/><path fill-rule="evenodd" clip-rule="evenodd" d="M12.274 39.02l-2.062-2.064L0 47.168l2.063 2.063 10.211-10.212z" fill="url(#paint5_linear)"/><path fill-rule="evenodd" clip-rule="evenodd" d="M10.21 47.168l2.064 2.063 10.211-10.212-2.062-2.063L10.21 47.168z" fill="url(#paint6_linear)"/><path fill-rule="evenodd" clip-rule="evenodd" d="M20.423 57.38L10.21 67.592l2.063 2.062 10.211-10.211-2.062-2.063z" fill="url(#paint7_linear)"/><path fill-rule="evenodd" clip-rule="evenodd" d="M20.423 47.168L10.211 57.38 0 67.591l2.063 2.063 10.211-10.211L22.486 49.23l10.212-10.212-2.063-2.063-10.212 10.212z" fill="url(#paint8_linear)"/><path fill-rule="evenodd" clip-rule="evenodd" d="M20.422 67.592l2.063 2.062 10.212-10.211-2.063-2.063-10.212 10.212z" fill="url(#paint9_linear)"/><path fill-rule="evenodd" clip-rule="evenodd" d="M47.168 36.956L36.957 47.168l2.063 2.063L49.23 39.019l-2.063-2.063z" fill="url(#paint10_linear)"/><path fill-rule="evenodd" clip-rule="evenodd" d="M49.23 49.231l10.212-10.212-2.062-2.063-10.212 10.212 2.063 2.063z" fill="url(#paint11_linear)"/><path fill-rule="evenodd" clip-rule="evenodd" d="M47.168 67.592l2.063 2.062 10.211-10.211-2.062-2.063-10.212 10.212z" fill="url(#paint12_linear)"/><path fill-rule="evenodd" clip-rule="evenodd" d="M57.38 47.168L47.168 57.38l2.063 2.063L59.442 49.23l10.212-10.212-2.063-2.063L57.38 47.168z" fill="url(#paint13_linear)"/><path fill-rule="evenodd" clip-rule="evenodd" d="M20.422 2.063l10.212 10.211 2.063-2.062L22.484 0l-2.062 2.063z" fill="url(#paint14_linear)"/><path fill-rule="evenodd" clip-rule="evenodd" d="M22.485 10.212L12.274 0 10.21 2.063l10.211 10.211 2.063-2.062z" fill="url(#paint15_linear)"/><path fill-rule="evenodd" clip-rule="evenodd" d="M12.274 10.212L2.063 0 0 2.063l10.212 10.211 10.211 10.213 10.212 10.21 2.063-2.062-10.212-10.211-10.212-10.212z" fill="url(#paint16_linear)"/><path fill-rule="evenodd" clip-rule="evenodd" d="M12.274 20.424l-2.063 2.063 10.211 10.21 2.063-2.062-10.211-10.211z" fill="url(#paint17_linear)"/><path fill-rule="evenodd" clip-rule="evenodd" d="M0 22.486l10.212 10.212 2.062-2.063L2.063 20.424 0 22.487z" fill="url(#paint18_linear)"/><defs><linearGradient id="paint0_linear" x1="32.883" y1="16.35" x2="43.095" y2="26.561" gradientUnits="userSpaceOnUse"><stop stop-color="#fff"/><stop offset=".92"/></linearGradient><linearGradient id="paint1_linear" x1="32.883" y1="26.561" x2="43.094" y2="36.772" gradientUnits="userSpaceOnUse"><stop stop-color="#fff"/><stop offset=".92"/></linearGradient><linearGradient id="paint2_linear" x1="22.671" y1="16.349" x2="53.306" y2="46.984" gradientUnits="userSpaceOnUse"><stop stop-color="#fff"/><stop offset=".92"/></linearGradient><linearGradient id="paint3_linear" x1="53.304" y1="16.349" x2="63.517" y2="26.561" gradientUnits="userSpaceOnUse"><stop stop-color="#fff"/><stop offset=".92"/></linearGradient><linearGradient id="paint4_linear" x1="53.304" y1="6.137" x2="63.516" y2="16.349" gradientUnits="userSpaceOnUse"><stop stop-color="#fff"/><stop offset=".92"/></linearGradient><linearGradient id="paint5_linear" x1="6.137" y1="53.306" x2="16.349" y2="43.094" gradientUnits="userSpaceOnUse"><stop stop-color="#fff"/><stop offset=".92"/></linearGradient><linearGradient id="paint6_linear" x1="16.348" y1="53.306" x2="26.56" y2="43.094" gradientUnits="userSpaceOnUse"><stop stop-color="#fff"/><stop offset=".92"/></linearGradient><linearGradient id="paint7_linear" x1="16.348" y1="73.729" x2="26.56" y2="63.517" gradientUnits="userSpaceOnUse"><stop stop-color="#fff"/><stop offset=".92"/></linearGradient><linearGradient id="paint8_linear" x1="16.349" y1="83.94" x2="46.984" y2="53.305" gradientUnits="userSpaceOnUse"><stop stop-color="#fff"/><stop offset=".92"/></linearGradient><linearGradient id="paint9_linear" x1="26.559" y1="73.729" x2="36.77" y2="63.517" gradientUnits="userSpaceOnUse"><stop stop-color="#fff"/><stop offset=".92"/></linearGradient><linearGradient id="paint10_linear" x1="43.094" y1="53.306" x2="53.306" y2="43.094" gradientUnits="userSpaceOnUse"><stop stop-color="#fff"/><stop offset=".92"/></linearGradient><linearGradient id="paint11_linear" x1="53.305" y1="53.306" x2="63.517" y2="43.094" gradientUnits="userSpaceOnUse"><stop stop-color="#fff"/><stop offset=".92"/></linearGradient><linearGradient id="paint12_linear" x1="53.305" y1="73.729" x2="63.517" y2="63.517" gradientUnits="userSpaceOnUse"><stop stop-color="#fff"/><stop offset=".92"/></linearGradient><linearGradient id="paint13_linear" x1="58.411" y1="68.623" x2="78.835" y2="48.2" gradientUnits="userSpaceOnUse"><stop stop-color="#fff"/><stop offset=".92"/></linearGradient><linearGradient id="paint14_linear" x1="16.347" y1="6.137" x2="26.559" y2="16.349" gradientUnits="userSpaceOnUse"><stop stop-color="#fff"/><stop offset=".92"/></linearGradient><linearGradient id="paint15_linear" x1="6.137" y1="6.137" x2="16.349" y2="16.349" gradientUnits="userSpaceOnUse"><stop stop-color="#fff"/><stop offset=".92"/></linearGradient><linearGradient id="paint16_linear" x1="-14.286" y1="16.349" x2="16.349" y2="46.984" gradientUnits="userSpaceOnUse"><stop stop-color="#fff"/><stop offset=".92"/></linearGradient><linearGradient id="paint17_linear" x1="6.137" y1="26.561" x2="16.348" y2="36.772" gradientUnits="userSpaceOnUse"><stop stop-color="#fff"/><stop offset=".92"/></linearGradient><linearGradient id="paint18_linear" x1="-4.074" y1="26.561" x2="6.137" y2="36.773" gradientUnits="userSpaceOnUse"><stop stop-color="#fff"/><stop offset=".92"/></linearGradient></defs></svg>